Mertz-Heavy.ufo
<glyph name="five" format="1">
  <advance width="1026"/>
  <unicode hex="0035"/>
  <outline>
    <contour>
      <point x="524" y="-36" type="curve" smooth="yes"/>
      <point x="882" y="-36"/>
      <point x="956" y="197"/>
      <point x="956" y="338" type="curve" smooth="yes"/>
      <point x="956" y="616"/>
      <point x="784" y="771"/>
      <point x="559" y="771" type="curve" smooth="yes"/>
      <point x="513" y="771"/>
      <point x="450" y="755"/>
      <point x="403" y="744" type="curve"/>
      <point x="406" y="839"/>
      <point x="405" y="914"/>
      <point x="409" y="1007" type="curve"/>
      <point x="854" y="1007" type="line"/>
      <point x="878" y="1242" type="line"/>
      <point x="170" y="1242" type="line"/>
      <point x="153" y="540" type="line"/>
      <point x="347" y="480" type="line"/>
      <point x="354" y="512"/>
      <point x="407" y="533"/>
      <point x="467" y="533" type="curve" smooth="yes"/>
      <point x="553" y="533"/>
      <point x="649" y="477"/>
      <point x="649" y="364" type="curve" smooth="yes"/>
      <point x="648" y="321"/>
      <point x="621" y="228"/>
      <point x="502" y="228" type="curve" smooth="yes"/>
      <point x="362" y="228"/>
      <point x="223" y="282"/>
      <point x="153" y="322" type="curve"/>
      <point x="95" y="82" type="line"/>
      <point x="151" y="50"/>
      <point x="331" y="-36"/>
    </contour>
  </outline>
</glyph>
<glyph name="eight" format="1">
  <advance width="1076"/>
  <unicode hex="0038"/>
  <outline>
    <contour>
      <point x="542" y="-33" type="curve" smooth="yes"/>
      <point x="788" y="-33"/>
      <point x="987" y="82"/>
      <point x="987" y="306" type="curve" smooth="yes"/>
      <point x="987" y="460"/>
      <point x="906" y="548"/>
      <point x="776" y="644" type="curve"/>
      <point x="888" y="724"/>
      <point x="964" y="829"/>
      <point x="964" y="940" type="curve" smooth="yes"/>
      <point x="964" y="1166"/>
      <point x="757" y="1278"/>
      <point x="536" y="1278" type="curve" smooth="yes"/>
      <point x="295" y="1278"/>
      <point x="113" y="1128"/>
      <point x="113" y="940" type="curve" smooth="yes"/>
      <point x="113" y="829"/>
      <point x="190" y="718"/>
      <point x="304" y="644" type="curve"/>
      <point x="172" y="557"/>
      <point x="89" y="455"/>
      <point x="89" y="305" type="curve" smooth="yes"/>
      <point x="89" y="81"/>
      <point x="305" y="-33"/>
    </contour>
    <contour>
      <point x="537" y="718" type="curve"/>
      <point x="425" y="750"/>
      <point x="353" y="832"/>
      <point x="353" y="930" type="curve"/>
      <point x="353" y="1014"/>
      <point x="433" y="1068"/>
      <point x="537" y="1068" type="curve" smooth="yes"/>
      <point x="641" y="1068"/>
      <point x="720" y="1014"/>
      <point x="720" y="930" type="curve" smooth="yes"/>
      <point x="720" y="847"/>
      <point x="655" y="752"/>
    </contour>
    <contour>
      <point x="537" y="177" type="curve" smooth="yes"/>
      <point x="424" y="177"/>
      <point x="339" y="235"/>
      <point x="339" y="342" type="curve" smooth="yes"/>
      <point x="339" y="439"/>
      <point x="398" y="526"/>
      <point x="538" y="580" type="curve"/>
      <point x="660" y="542"/>
      <point x="740" y="435"/>
      <point x="740" y="347" type="curve" smooth="yes"/>
      <point x="740" y="230"/>
      <point x="651" y="177"/>
    </contour>
  </outline>
</glyph>
<glyph name="F" format="1">
  <advance width="931"/>
  <unicode hex="0046"/>
  <outline>
    <contour>
      <point x="138" y="0" type="line"/>
      <point x="430" y="0" type="line"/>
      <point x="430" y="495" type="line"/>
      <point x="795" y="495" type="line"/>
      <point x="795" y="747" type="line"/>
      <point x="432" y="747" type="line"/>
      <point x="432" y="985" type="line"/>
      <point x="861" y="985" type="line"/>
      <point x="861" y="1241" type="line"/>
      <point x="138" y="1241" type="line"/>
    </contour>
  </outline>
</glyph>
<glyph name="G" format="1">
  <advance width="1416"/>
  <unicode hex="0047"/>
  <outline>
    <contour>
      <point x="749" y="-33" type="curve" smooth="yes"/>
      <point x="1012" y="-33"/>
      <point x="1180" y="39"/>
      <point x="1306" y="116" type="curve"/>
      <point x="1306" y="717" type="line"/>
      <point x="749" y="717" type="line"/>
      <point x="749" y="478" type="line"/>
      <point x="1019" y="478" type="line"/>
      <point x="1019" y="274" type="line"/>
      <point x="943" y="244"/>
      <point x="860" y="228"/>
      <point x="780" y="228" type="curve" smooth="yes"/>
      <point x="571" y="228"/>
      <point x="384" y="339"/>
      <point x="384" y="622" type="curve" smooth="yes"/>
      <point x="384" y="906"/>
      <point x="591" y="1014"/>
      <point x="800" y="1014" type="curve" smooth="yes"/>
      <point x="937" y="1014"/>
      <point x="1081" y="966"/>
      <point x="1190" y="887" type="curve"/>
      <point x="1190" y="1174" type="line"/>
      <point x="1190" y="1174"/>
      <point x="997" y="1275"/>
      <point x="769" y="1275" type="curve" smooth="yes"/>
      <point x="381" y="1275"/>
      <point x="74" y="1026"/>
      <point x="74" y="622" type="curve" smooth="yes"/>
      <point x="74" y="219"/>
      <point x="361" y="-33"/>
    </contour>
  </outline>
</glyph>
<glyph name="K" format="1">
  <advance width="1265"/>
  <unicode hex="004B"/>
  <outline>
    <contour>
      <point x="440" y="569" type="line"/>
      <point x="440" y="569"/>
      <point x="866.0" y="0.0"/>
      <point x="866" y="0.0" type="curve"/>
      <point x="1231" y="0.0" type="line"/>
      <point x="744.526000977" y="634.781005859" type="line"/>
      <point x="1205.0" y="1241.0" type="line"/>
      <point x="851.0" y="1241.0" type="line"/>
      <point x="851.0" y="1241.0"/>
      <point x="438.0" y="695.0"/>
      <point x="438" y="695" type="curve"/>
      <point x="438" y="1242.0" type="line"/>
      <point x="138" y="1242.0" type="line"/>
      <point x="138" y="0.0" type="line"/>
      <point x="440" y="0.0" type="line"/>
    </contour>
  </outline>
</glyph>
<glyph name="M" format="1">
  <advance width="1651"/>
  <unicode hex="004D"/>
  <outline>
    <contour>
      <point x="66" y="0" type="line"/>
      <point x="350" y="0" type="line"/>
      <point x="443" y="577" type="line"/>
      <point x="826" y="-27" type="line"/>
      <point x="1209" y="577" type="line"/>
      <point x="1301" y="0" type="line"/>
      <point x="1585" y="0" type="line"/>
      <point x="1360" y="1311" type="line"/>
      <point x="826" y="449" type="line"/>
      <point x="291" y="1311" type="line"/>
    </contour>
  </outline>
</glyph>
<glyph name="T" format="1">
  <advance width="1122"/>
  <unicode hex="0054"/>
  <outline>
    <contour>
      <point x="711" y="0" type="line"/>
      <point x="711" y="973" type="line"/>
      <point x="1076" y="973" type="line"/>
      <point x="1076" y="1241" type="line"/>
      <point x="38" y="1241" type="line"/>
      <point x="38" y="973" type="line"/>
      <point x="403" y="973" type="line"/>
      <point x="403" y="0" type="line"/>
    </contour>
  </outline>
</glyph>
<glyph name="a" format="1">
  <advance width="963"/>
  <unicode hex="0061"/>
  <outline>
    <contour>
      <point x="424" y="157" type="curve"/>
      <point x="388" y="157"/>
      <point x="360.0" y="191.0"/>
      <point x="360.0" y="243.0" type="curve" smooth="yes"/>
      <point x="360.0" y="280.0"/>
      <point x="390.0" y="331.0"/>
      <point x="470.0" y="374.0" type="curve" smooth="yes"/>
      <point x="490.0" y="385.0"/>
      <point x="514.0" y="395.0"/>
      <point x="540.0" y="404.0" type="curve"/>
      <point x="540.0" y="216.0" type="line"/>
      <point x="511.0" y="181.0"/>
      <point x="472" y="157"/>
    </contour>
    <contour>
      <point x="355" y="-25" type="curve" smooth="yes"/>
      <point x="433" y="-25"/>
      <point x="539" y="19"/>
      <point x="587" y="109" type="curve"/>
      <point x="651" y="-13"/>
      <point x="805" y="-18"/>
      <point x="847" y="-18" type="curve" smooth="yes"/>
      <point x="865" y="-18" type="line"/>
      <point x="944" y="202" type="line"/>
      <point x="930" y="202" type="line" smooth="yes"/>
      <point x="852" y="202"/>
      <point x="811" y="229"/>
      <point x="811" y="321" type="curve" smooth="yes"/>
      <point x="811" y="602" type="line" smooth="yes"/>
      <point x="811" y="825"/>
      <point x="620" y="904"/>
      <point x="462" y="904" type="curve" smooth="yes"/>
      <point x="248" y="904"/>
      <point x="106" y="803"/>
      <point x="96" y="794" type="curve"/>
      <point x="173" y="582" type="line"/>
      <point x="215" y="605"/>
      <point x="336" y="676"/>
      <point x="433" y="676" type="curve"/>
      <point x="494" y="676"/>
      <point x="541" y="649"/>
      <point x="541" y="549" type="curve" smooth="yes"/>
      <point x="541" y="529" type="line"/>
      <point x="443" y="506" type="line" smooth="yes"/>
      <point x="213" y="452"/>
      <point x="91" y="350"/>
      <point x="91" y="230" type="curve" smooth="yes"/>
      <point x="91" y="67"/>
      <point x="218" y="-25"/>
    </contour>
  </outline>
</glyph>
<glyph name="g" format="1">
  <advance width="1118"/>
  <unicode hex="0067"/>
  <outline>
    <contour>
      <point x="588" y="-393" type="curve" smooth="yes"/>
      <point x="783" y="-393"/>
      <point x="996" y="-318"/>
      <point x="996" y="-21" type="curve" smooth="yes"/>
      <point x="996" y="876" type="line"/>
      <point x="725" y="876" type="line"/>
      <point x="725" y="821" type="line"/>
      <point x="676" y="869"/>
      <point x="567" y="901"/>
      <point x="512" y="901" type="curve" smooth="yes"/>
      <point x="268" y="901"/>
      <point x="79" y="696"/>
      <point x="79" y="448" type="curve" smooth="yes"/>
      <point x="79" y="232"/>
      <point x="233" y="-15"/>
      <point x="569" y="-15" type="curve" smooth="yes"/>
      <point x="628" y="-15"/>
      <point x="711" y="-5"/>
      <point x="746" y="6" type="curve"/>
      <point x="747" y="-3"/>
      <point x="748" y="-13"/>
      <point x="748" y="-20" type="curve" smooth="yes"/>
      <point x="748" y="-123"/>
      <point x="659" y="-146"/>
      <point x="566" y="-146" type="curve" smooth="yes"/>
      <point x="422" y="-146"/>
      <point x="265" y="-85"/>
      <point x="265" y="-85" type="curve"/>
      <point x="265" y="-322" type="line"/>
      <point x="283" y="-328"/>
      <point x="414" y="-393"/>
    </contour>
    <contour>
      <point x="600" y="196" type="curve" smooth="yes"/>
      <point x="452" y="196"/>
      <point x="347" y="294"/>
      <point x="347" y="436" type="curve" smooth="yes"/>
      <point x="347" y="574"/>
      <point x="438" y="679"/>
      <point x="583" y="679" type="curve" smooth="yes"/>
      <point x="624" y="679"/>
      <point x="676" y="670"/>
      <point x="722" y="642" type="curve"/>
      <point x="722" y="204" type="line"/>
      <point x="677" y="193"/>
      <point x="634" y="196"/>
    </contour>
  </outline>
</glyph>
<glyph name="i" format="1">
  <advance width="549"/>
  <unicode hex="0069"/>
  <outline>
    <contour>
      <point x="443" y="1135" type="curve" smooth="yes"/>
      <point x="443" y="1215"/>
      <point x="382" y="1300"/>
      <point x="275" y="1300" type="curve" smooth="yes"/>
      <point x="168" y="1300"/>
      <point x="106" y="1216"/>
      <point x="106" y="1135" type="curve" smooth="yes"/>
      <point x="106" y="1051"/>
      <point x="169" y="970"/>
      <point x="275" y="970" type="curve" smooth="yes"/>
      <point x="381" y="970"/>
      <point x="443" y="1052"/>
    </contour>
    <contour>
      <point x="411.0" y="0.0" type="line"/>
      <point x="411" y="876" type="line"/>
      <point x="138" y="876" type="line"/>
      <point x="138.0" y="0.0" type="line"/>
    </contour>
  </outline>
</glyph>
<glyph name="k" format="1">
  <advance width="1072.0"/>
  <unicode hex="006B"/>
  <outline>
    <contour>
      <point x="397.0" y="389.460998535" type="line"/>
      <point x="728.0" y="0" type="line"/>
      <point x="1080.0" y="0" type="line"/>
      <point x="667.486022949" y="469.50201416" type="line"/>
      <point x="1030.94995117" y="875.0" type="line"/>
      <point x="686.598022461" y="875.0" type="line"/>
      <point x="397.0" y="537.729003906" type="line"/>
      <point x="397.0" y="1276.0" type="line"/>
      <point x="122.0" y="1241.0" type="line"/>
      <point x="122.0" y="0" type="line"/>
      <point x="397.0" y="0" type="line"/>
    </contour>
  </outline>
</glyph>
<glyph name="l" format="1">
  <advance width="709.0"/>
  <unicode hex="006C"/>
  <outline>
    <contour>
      <point x="397.0" y="1277.46995544" type="line"/>
      <point x="122.0" y="1239.71995544" type="line"/>
      <point x="122.0" y="270.342025757" type="line" smooth="yes"/>
      <point x="122.0" y="75.4561157227"/>
      <point x="266.509002686" y="-23.9999847412"/>
      <point x="418.0" y="-23.9999847412" type="curve" smooth="yes"/>
      <point x="554.473022461" y="-23.9999847412"/>
      <point x="635.0" y="15"/>
      <point x="646.0" y="21" type="curve"/>
      <point x="646.0" y="246" type="line"/>
      <point x="615.0" y="231"/>
      <point x="547.0" y="210"/>
      <point x="490.075012207" y="210.432998657" type="curve"/>
      <point x="438.295013428" y="210.433013916"/>
      <point x="397.0" y="228.900009155"/>
      <point x="397.0" y="298.353012085" type="curve" smooth="yes"/>
    </contour>
  </outline>
</glyph>
<glyph name="m" format="1">
  <advance width="1705"/>
  <unicode hex="006D"/>
  <outline>
    <contour>
      <point x="397.0" y="580.645996094" type="line"/>
      <point x="450.350006104" y="651.395996094"/>
      <point x="536" y="680"/>
      <point x="602" y="680" type="curve" smooth="yes"/>
      <point x="647" y="680"/>
      <point x="718" y="655"/>
      <point x="718" y="559" type="curve" smooth="yes"/>
      <point x="718" y="0" type="line"/>
      <point x="990" y="0" type="line"/>
      <point x="990" y="584" type="line"/>
      <point x="1036" y="635"/>
      <point x="1127" y="680"/>
      <point x="1198" y="680" type="curve" smooth="yes"/>
      <point x="1262" y="680"/>
      <point x="1320" y="652"/>
      <point x="1320" y="548" type="curve" smooth="yes"/>
      <point x="1320" y="0" type="line"/>
      <point x="1595" y="0" type="line"/>
      <point x="1595" y="567" type="line" smooth="yes"/>
      <point x="1595" y="798"/>
      <point x="1418" y="902"/>
      <point x="1246" y="902" type="curve" smooth="yes"/>
      <point x="1205" y="902"/>
      <point x="1051" y="896"/>
      <point x="929" y="770" type="curve"/>
      <point x="881" y="844"/>
      <point x="795" y="901"/>
      <point x="680" y="901" type="curve" smooth="yes"/>
      <point x="629" y="901"/>
      <point x="484" y="894"/>
      <point x="394" y="785" type="curve"/>
      <point x="394" y="876" type="line"/>
      <point x="122" y="876" type="line"/>
      <point x="122" y="0" type="line"/>
      <point x="397" y="0" type="line"/>
    </contour>
  </outline>
</glyph>
<glyph name="n" format="1">
  <advance width="1160.0"/>
  <unicode hex="006E"/>
  <outline>
    <contour>
      <point x="404" y="0" type="line"/>
      <point x="404" y="580.859985352" type="line"/>
      <point x="432.00100708" y="635.578979492"/>
      <point x="531" y="688"/>
      <point x="626" y="688" type="curve" smooth="yes"/>
      <point x="704" y="688"/>
      <point x="768.0" y="654.047973633"/>
      <point x="768.0" y="558.757019043" type="curve" smooth="yes"/>
      <point x="768.0" y="0.0" type="line"/>
      <point x="1050.0" y="0.0" type="line"/>
      <point x="1050.0" y="580.150024414" type="line" smooth="yes"/>
      <point x="1050.0" y="770.744995117"/>
      <point x="897.942993164" y="903.0"/>
      <point x="711.0" y="903.0" type="curve" smooth="yes"/>
      <point x="611.866027832" y="903.0"/>
      <point x="503" y="874"/>
      <point x="401" y="785" type="curve"/>
      <point x="401" y="876" type="line"/>
      <point x="122" y="876" type="line"/>
      <point x="122" y="0" type="line"/>
    </contour>
  </outline>
</glyph>
<glyph name="p" format="1">
  <advance width="1091"/>
  <unicode hex="0070"/>
  <outline>
    <contour>
      <point x="122.0" y="-364.0" type="line"/>
      <point x="398.0" y="-364.0" type="line"/>
      <point x="398" y="-2" type="line"/>
      <point x="398" y="-2"/>
      <point x="466" y="-12"/>
      <point x="524" y="-12" type="curve" smooth="yes"/>
      <point x="827" y="-12"/>
      <point x="1012" y="173"/>
      <point x="1012" y="451" type="curve" smooth="yes"/>
      <point x="1012" y="705"/>
      <point x="859" y="906"/>
      <point x="613" y="906" type="curve" smooth="yes"/>
      <point x="506" y="906"/>
      <point x="435" y="866"/>
      <point x="398" y="832" type="curve"/>
      <point x="398" y="876" type="line"/>
      <point x="122" y="876" type="line"/>
    </contour>
    <contour>
      <point x="477.0" y="191.0" type="curve" smooth="yes"/>
      <point x="452.0" y="191.0"/>
      <point x="428.0" y="192.0"/>
      <point x="398.0" y="196.0" type="curve"/>
      <point x="398.0" y="646.0" type="line"/>
      <point x="448.0" y="669.0"/>
      <point x="494.0" y="680.0"/>
      <point x="537.0" y="680.0" type="curve" smooth="yes"/>
      <point x="659.0" y="680.0"/>
      <point x="742.0" y="593.0"/>
      <point x="742.0" y="453.0" type="curve" smooth="yes"/>
      <point x="742.0" y="274.0"/>
      <point x="643.0" y="191.0"/>
    </contour>
  </outline>
</glyph>
<glyph name="t" format="1">
  <advance width="817.405029296"/>
  <unicode hex="0074"/>
  <outline>
    <contour>
      <point x="468.404998779" y="-26.0" type="curve" smooth="yes"/>
      <point x="646.043029785" y="-26.0"/>
      <point x="741.064025878" y="52.5166015625"/>
      <point x="747.405029296" y="58.8573913574" type="curve"/>
      <point x="747.404998779" y="268" type="line"/>
      <point x="711.38998413" y="252.746994019"/>
      <point x="607.826995849" y="206.729003906"/>
      <point x="529.608978271" y="206.729003906" type="curve" smooth="yes"/>
      <point x="476.069976806" y="206.729003906"/>
      <point x="434.404968261" y="228.289993286"/>
      <point x="434.404968261" y="296.033996582" type="curve" smooth="yes"/>
      <point x="434.404968261" y="660.0" type="line"/>
      <point x="702.404998779" y="660.0" type="line"/>
      <point x="702.404998779" y="875.0" type="line"/>
      <point x="434.404968261" y="875.0" type="line"/>
      <point x="434.404968261" y="1136.0" type="line"/>
      <point x="71.61328125" y="762.400024414" type="line" smooth="yes"/>
      <point x="53.4022979736" y="745.234008789"/>
      <point x="45.0" y="726.533996582"/>
      <point x="45.0" y="709.867004395" type="curve" smooth="yes"/>
      <point x="45.0" y="682.114013672"/>
      <point x="68.2998046875" y="660.0"/>
      <point x="108.404998779" y="660.0" type="curve" smooth="yes"/>
      <point x="164.404998779" y="660.0" type="line"/>
      <point x="164.404998779" y="220.804992676" type="line" smooth="yes"/>
      <point x="164.404998779" y="60.8105010986"/>
      <point x="318.390991211" y="-26.0"/>
    </contour>
  </outline>
</glyph>
<glyph name="v" format="1">
  <advance width="1026"/>
  <unicode hex="0076"/>
  <outline>
    <contour>
      <point x="513" y="-27" type="line"/>
      <point x="513" y="-27"/>
      <point x="1012" y="876"/>
      <point x="1012" y="876" type="curve"/>
      <point x="702" y="876" type="line"/>
      <point x="513" y="464" type="line"/>
      <point x="321" y="876" type="line"/>
      <point x="14" y="876" type="line"/>
    </contour>
  </outline>
</glyph>
<glyph name="x" format="1">
  <advance width="1179"/>
  <unicode hex="0078"/>
  <outline>
    <contour>
      <point x="593.679992676" y="280.601013184" type="line"/>
      <point x="822" y="0" type="line"/>
      <point x="1152" y="0" type="line"/>
      <point x="760" y="440" type="line"/>
      <point x="1136" y="875" type="line"/>
      <point x="792" y="875" type="line"/>
      <point x="583.323974609" y="609.361022949" type="line"/>
      <point x="367" y="875" type="line"/>
      <point x="36" y="875" type="line"/>
      <point x="417" y="450" type="line"/>
      <point x="27" y="0" type="line"/>
      <point x="377" y="0" type="line"/>
    </contour>
  </outline>
</glyph>
<glyph name="y" format="1">
  <advance width="1020"/>
  <unicode hex="0079"/>
  <outline>
    <contour>
      <point x="1024" y="876" type="line"/>
      <point x="719" y="876" type="line"/>
      <point x="527" y="483" type="line"/>
      <point x="318" y="876" type="line"/>
      <point x="-1" y="876" type="line"/>
      <point x="375" y="230" type="line"/>
      <point x="147.423995972" y="-244.0" type="line"/>
      <point x="446.286987305" y="-244" type="line"/>
    </contour>
  </outline>
</glyph>
<glyph name="z" format="1">
  <advance width="916"/>
  <unicode hex="007A"/>
  <outline>
    <contour>
      <point x="829" y="215" type="line"/>
      <point x="485" y="215" type="line"/>
      <point x="485" y="215"/>
      <point x="860" y="876"/>
      <point x="860" y="876" type="curve"/>
      <point x="87" y="876" type="line"/>
      <point x="87" y="669" type="line"/>
      <point x="465" y="669" type="line"/>
      <point x="465" y="669"/>
      <point x="58" y="0"/>
      <point x="58" y="0" type="curve"/>
      <point x="829" y="0" type="line"/>
    </contour>
  </outline>
</glyph>
<glyph name="Oslash" format="1">
  <advance width="1533"/>
  <unicode hex="00D8"/>
  <outline>
    <contour>
      <point x="1162" y="1351" type="line"/>
      <point x="237" y="-39" type="line"/>
      <point x="345" y="-106" type="line"/>
      <point x="1270" y="1284" type="line"/>
    </contour>
    <component base="O"/>
  </outline>
</glyph>
<glyph name="eacute" format="1">
  <advance width="1021"/>
  <unicode hex="00E9"/>
  <outline>
    <contour>
      <point x="554" y="1108.5" type="line" smooth="yes"/>
      <point x="548.666015625" y="1097.25488281"/>
      <point x="546.32421875" y="1086.76757812"/>
      <point x="546.32421875" y="1077.48046875" type="curve" smooth="yes"/>
      <point x="546.32421875" y="1053.18652344"/>
      <point x="562.34765625" y="1037.09765625"/>
      <point x="582.762695312" y="1037.09765625" type="curve" smooth="yes"/>
      <point x="595.411132812" y="1037.09765625"/>
      <point x="609.74609375" y="1043.2734375"/>
      <point x="623.0" y="1057.5" type="curve" smooth="yes"/>
      <point x="882.0" y="1335.5" type="line" smooth="yes"/>
      <point x="916.452148438" y="1372.47851562"/>
      <point x="930.459960938" y="1409.6484375"/>
      <point x="930.459960938" y="1441.99121094" type="curve" smooth="yes"/>
      <point x="930.459960938" y="1498.67089844"/>
      <point x="887.435546875" y="1540.51953125"/>
      <point x="836.038085938" y="1540.51953125" type="curve" smooth="yes"/>
      <point x="793.556640625" y="1540.51953125"/>
      <point x="745.35546875" y="1511.93164062"/>
      <point x="711.0" y="1439.5" type="curve" smooth="yes"/>
    </contour>
    <contour>
      <point x="360.547851562" y="566.0" type="line"/>
      <point x="383.774414062" y="648.197265625"/>
      <point x="458.19921875" y="701.0"/>
      <point x="545.0" y="701.0" type="curve" smooth="yes"/>
      <point x="619.521484375" y="701.0"/>
      <point x="679.043945312" y="662.875976562"/>
      <point x="691.00390625" y="566.0" type="curve"/>
    </contour>
    <contour>
      <point x="624.0" y="196.0" type="curve" smooth="yes"/>
      <point x="498.927734375" y="196.0"/>
      <point x="380.5" y="242.776367188"/>
      <point x="349.00390625" y="389.0" type="curve"/>
      <point x="918.0" y="389.0" type="line"/>
      <point x="918.0" y="455.702148438" type="line" smooth="yes"/>
      <point x="918.0" y="702.9296875"/>
      <point x="799.797851562" y="903.0"/>
      <point x="517.0" y="903.0" type="curve" smooth="yes"/>
      <point x="253.016601562" y="903.0"/>
      <point x="70.0" y="693.405273438"/>
      <point x="70.0" y="452.684570312" type="curve" smooth="yes"/>
      <point x="70.0" y="130.756835938"/>
      <point x="337.356445312" y="-27.0"/>
      <point x="600.0" y="-27.0" type="curve" smooth="yes"/>
      <point x="709.401367188" y="-27.0"/>
      <point x="817.265625" y="2.677734375"/>
      <point x="907.0" y="56.3271484375" type="curve"/>
      <point x="907.0" y="284.734375" type="line"/>
      <point x="842.87109375" y="237.708007812"/>
      <point x="739.856445312" y="196.0"/>
    </contour>
  </outline>
</glyph>
<glyph name="Eogonek" format="1">
  <advance width="973"/>
  <unicode hex="0118"/>
  <outline>
    <contour>
      <point x="598" y="0" type="line"/>
      <point x="489" y="-92"/>
      <point x="448" y="-166"/>
      <point x="448" y="-225" type="curve" smooth="yes"/>
      <point x="448" y="-299"/>
      <point x="513" y="-348"/>
      <point x="588" y="-376" type="curve"/>
      <point x="657" y="-318" type="line"/>
      <point x="592" y="-263"/>
      <point x="568" y="-214"/>
      <point x="568" y="-170" type="curve" smooth="yes"/>
      <point x="568" y="-109"/>
      <point x="613" y="-56"/>
      <point x="657" y="0" type="curve"/>
    </contour>
    <contour>
      <point x="138" y="0" type="line"/>
      <point x="871" y="0" type="line"/>
      <point x="871" y="266" type="line"/>
      <point x="430" y="266" type="line"/>
      <point x="430" y="512" type="line"/>
      <point x="795" y="512" type="line"/>
      <point x="795" y="764" type="line"/>
      <point x="432" y="764" type="line"/>
      <point x="432" y="985" type="line"/>
      <point x="861" y="985" type="line"/>
      <point x="861" y="1241" type="line"/>
      <point x="138" y="1241" type="line"/>
    </contour>
  </outline>
</glyph>
